<svg width="512" height="512" viewBox="0 0 512 512" fill="none" xmlns="http://www.w3.org/2000/svg">
<path d="M333.205 34.213L330.799 0L9.54601 22.591L39.863 453.709L83.874 450.614V512H405.92V476.724L456.185 482.137L502.455 52.439L333.205 34.213ZM83.874 420.519L67.704 421.656L41.599 50.432L302.958 32.052L306.317 79.817H83.874V420.519ZM375.9 481.979H113.895V109.838H375.9V481.979ZM429.552 449.073L405.921 446.528V79.817H336.413L335.345 64.637L469.394 79.071L429.552 449.073Z" fill="white"/>
<path d="M342.799 296.746H147.003V326.767H342.799V296.746Z" fill="white"/>
<path d="M342.799 350.143H147.003V380.164H342.799V350.143Z" fill="white"/>
<path d="M342.799 403.54H147.003V433.561H342.799V403.54Z" fill="white"/>
<path d="M201.384 229.293C188.146 229.293 179.23 220.107 179.23 205.653C179.23 191.199 188.145 182.013 201.384 182.013C209.895 182.013 216.514 186.066 222.052 193.091L242.18 175.125C232.859 162.968 218.269 156.213 199.762 156.213C169.368 156.213 147.078 176.611 147.078 205.655C147.078 234.699 169.367 255.097 199.762 255.095C218.27 255.095 232.859 248.341 242.18 236.183L222.052 218.217C216.514 225.24 209.895 229.293 201.384 229.293Z" fill="white"/>
<path d="M321.075 158.373L297.975 213.624L275.415 158.373H241.102L281.088 252.934H312.429L352.414 158.373H321.075Z" fill="white"/>
</svg>
