<svg width="512" height="492" viewBox="0 0 512 492" fill="none" xmlns="http://www.w3.org/2000/svg">
<path d="M115.649 433.113C129.324 444.279 150.415 452.527 181.626 448.645C181.673 455.113 181.726 460.806 181.769 465.558C181.825 471.627 181.867 476.16 181.867 478.811C181.867 479.876 181.474 480.301 181.468 480.307C181.46 480.314 181.432 480.338 181.362 480.374C181.291 480.41 181.131 480.481 180.844 480.546C180.326 480.661 179.301 480.774 177.609 480.523C80.4594 448.429 10.6667 358.277 10.6667 252.229C10.6667 119.371 120.276 11.3333 256 11.3333C391.661 11.3333 501.333 119.373 501.333 252.229C501.333 358.124 431.584 448.342 333.707 480.214C331.882 480.507 330.792 480.396 330.256 480.281C329.925 480.209 329.767 480.131 329.711 480.096C329.71 480.095 329.708 480.092 329.705 480.088C329.658 480.021 329.365 479.604 329.365 478.64C329.365 475.982 329.4 471.296 329.446 464.967C329.47 461.679 329.498 457.949 329.525 453.829C329.605 441.824 329.685 426.62 329.685 409.755C329.685 394.213 326.396 381.28 321.216 371.254C344.813 367.133 368.82 359.325 388.277 343.314C413.373 322.66 429.205 289.822 429.205 239.109C429.205 211.298 419.901 187.936 404.384 169.219C407.998 156.873 411.983 132.138 399.652 101.092L397.779 96.3759L392.938 94.8538L389.739 105.029C392.938 94.8538 392.928 94.8506 392.918 94.8474L392.897 94.8409L392.853 94.8275C392.824 94.8184 392.793 94.8091 392.76 94.7995C392.739 94.7933 392.718 94.787 392.696 94.7807C392.65 94.7671 392.601 94.7531 392.549 94.7386C392.397 94.6961 392.223 94.6501 392.027 94.602C391.635 94.5058 391.154 94.4014 390.585 94.3004C389.444 94.0981 387.954 93.9108 386.104 93.8283C382.4 93.6629 377.309 93.9203 370.765 95.2825C358.4 97.8563 340.93 104.354 317.768 119.301C297.717 114.273 276.683 111.787 255.721 111.664L255.659 111.664L255.596 111.664C234.628 111.788 213.588 114.274 193.532 119.305C170.214 104.35 152.665 97.8532 140.265 95.281C133.705 93.9202 128.607 93.663 124.899 93.8282C123.048 93.9107 121.556 94.0979 120.415 94.3001C119.845 94.401 119.364 94.5055 118.971 94.6017C118.775 94.6499 118.601 94.6959 118.449 94.7384C118.373 94.7597 118.302 94.7801 118.237 94.7994C118.205 94.809 118.174 94.8184 118.144 94.8275L118.101 94.8409L118.08 94.8474C118.069 94.8506 118.059 94.8538 121.259 105.029L118.059 94.8538L113.218 96.3759L111.345 101.092C99.0759 131.984 102.929 156.708 106.82 169.326C91.2694 188.031 82.0053 211.36 82.0053 239.109C82.0053 289.699 97.8177 322.547 122.856 343.266C142.301 359.357 166.303 367.257 189.9 371.438C187.22 376.646 185.066 382.62 183.616 389.327C177.133 391.6 168.576 393.576 159.793 392.804C149.133 391.867 137.309 386.867 127.727 370.769C127.723 370.762 127.718 370.754 127.713 370.746C127.664 370.661 127.602 370.552 127.525 370.423C127.371 370.163 127.161 369.817 126.896 369.397C126.365 368.556 125.607 367.41 124.622 366.056C122.662 363.361 119.752 359.768 115.889 356.097C108.228 348.817 96.1993 340.672 80.0202 339.571L79.7267 339.551L79.4326 339.548L79.296 350.213C79.4326 339.548 79.4293 339.548 79.4259 339.547L79.4187 339.547L79.4023 339.547L79.3624 339.547C79.3327 339.547 79.2967 339.546 79.2547 339.546C79.1709 339.546 79.0629 339.546 78.9331 339.547C78.6741 339.549 78.3249 339.555 77.905 339.57C77.0747 339.598 75.9204 339.661 74.6104 339.802C72.4114 340.039 68.1713 340.641 64.5024 342.69C62.5658 343.772 59.7593 345.826 58.1397 349.455C56.358 353.447 56.8213 357.487 58.1837 360.693C59.4266 363.619 61.4603 366.044 63.5129 368.027C65.6459 370.087 68.3351 372.176 71.5515 374.339L72.2602 374.816L72.9105 375.116C72.942 375.133 72.9919 375.159 73.0594 375.197C73.2954 375.328 73.7457 375.591 74.3702 376.011C75.6179 376.848 77.5662 378.313 79.8964 380.605C84.4934 385.126 90.7205 393.007 95.9631 405.959C96.0103 406.098 96.0663 406.258 96.1316 406.44C96.3187 406.961 96.5828 407.655 96.935 408.493C97.6384 410.167 98.7004 412.431 100.215 415.043C103.237 420.257 108.124 426.969 115.649 433.113ZM329.704 480.091C329.704 480.092 329.705 480.092 329.705 480.092C329.677 480.074 329.681 480.071 329.704 480.091Z" fill="white" stroke="black" stroke-width="21.3333"/>
</svg>
