
		<svg xmlns="http://www.w3.org/2000/svg" xmlns:xlink="http://www.w3.org/1999/xlink" version="1.1" width="3151.5151515151515" height="1333.3333333333335">
			
			<g transform="scale(7.575757575757576) translate(10, 10)">
				<defs id="SvgjsDefs1762"></defs><g id="SvgjsG1763" featureKey="root" fill="#000000"></g><g id="SvgjsG1764" featureKey="container1" fill="#e81114" transform="matrix(3.304105124750942,0,0,3.304105124750942,0.05228205893503916,-0.013486452039655716)"><g id="46bfeca5-5fe1-46b7-b39f-b07f8c93ed2d">  <g id="19289a54-b124-48e4-a4f1-c06206842ce4">  <path d="M179.18,94.3a41.74,41.74,0,0,1-13.71,4.27,15.92,15.92,0,0,1-9.3-1.56,12.77,12.77,0,0,1-5.39-5.84,22.19,22.19,0,0,1-2-8.58,37,37,0,0,1,.94-9.78,41.53,41.53,0,0,1,3.36-9.43,29.35,29.35,0,0,1,5.29-7.53,14.94,14.94,0,0,1,6.71-4.1,12.74,12.74,0,0,1,3.5-.31,28.86,28.86,0,0,1,4.3.5c1.53,0.28,3.14.67,4.78,1.15s3.3,1,4.94,1.63,3.24,1.27,4.77,2,3,1.4,4.28,2.12a37.53,37.53,0,0,1,3.46,2.11,14.17,14.17,0,0,1,2.33,2,21.77,21.77,0,0,1,3.33,4.65,12.45,12.45,0,0,1,1.37,4.39,10.33,10.33,0,0,1-.41,4.16,13.77,13.77,0,0,1-2,3.95,23.78,23.78,0,0,1-3.44,3.77,43,43,0,0,1-4.69,3.62c-1.75,1.19-3.68,2.35-5.76,3.5S181.53,93.17,179.18,94.3Z" transform="translate(-148.77 -51.42)"></path> </g>   </g></g><g id="SvgjsG1765" featureKey="text4" fill="#ffffff" transform="matrix(7.441003440283268,0,0,7.441003440283268,33.81606588766932,-17.820068805665358)"><path d="M11.27 20 l-1.0254 -2.9102 l-5.9277 0 l-1.0254 2.9102 l-2.998 0 l5.1953 -14.111 l3.584 0 l5.1953 14.111 l-2.998 0 z M5.1758 14.6387 l4.209 0 l-2.0996 -5.9863 z"></path></g><g id="SvgjsG1766" featureKey="text1" fill="#ffffff" transform="matrix(2.3712318411405446,0,0,2.3712318411405446,196.0040818804646,28.87970773516096)"><path d="M7.36 7.219999999999999 l4.04 16.78 l-3.06 0 l-0.78 -3.58 l-3.3 0 l-0.8 3.58 l-3.04 0 l4.02 -16.78 l2.92 0 z M5.9 12.94 l-1.14 5.22 l2.3 0 z M12.82 7.219999999999999 l3.06 0 l0 14.5 l3.56 0 l0 2.28 l-6.62 0 l0 -16.78 z M27.02 16.36 l-3.2 0 l0 5.36 l4.84 0 l0 2.28 l-7.86 0 l0 -16.78 l7.86 0 l0 2.28 l-4.84 0 l0 4.62 l3.2 0 l0 2.24 z M39.82 7.219999999999999 l-3.4 8.38 l3.4 8.4 l-3.1 0 l-1.84 -5.2 l-1.84 5.2 l-3.08 0 l3.38 -8.4 l-3.38 -8.38 l3.1 0 l1.82 5.2 l1.84 -5.2 l3.1 0 z M41.26 18.96 l0 -2.48 l5.78 0 l0 2.48 l-5.78 0 z M57.84 7.219999999999999 l1.92 10.16 l1.8 -10.16 l3.06 0 l-3.24 16.78 l-3.06 0 l-1.8 -9.26 l-1.8 9.26 l-3.06 0 l-3.24 -16.78 l3.06 0 l1.8 10.16 l1.92 -10.16 l2.64 0 z M72.32 16.36 l-3.2 0 l0 5.36 l4.84 0 l0 2.28 l-7.86 0 l0 -16.78 l7.86 0 l0 2.28 l-4.84 0 l0 4.62 l3.2 0 l0 2.24 z M84.66 11.4 c0 1.32 -0.06 2.34 -0.88 3.3 c0.54 0.62 0.88 1.48 0.88 2.38 c0.02 1.1 0.02 2.18 0.02 3.28 c0 2.14 -1.7 3.64 -3.4 3.64 l-5.56 0 l0 -16.78 l4.64 0 c0.32 0 0.62 0 0.94 0.02 c2.08 0 3.36 1.72 3.36 4.16 z M78.74 21.56 l1.52 0 c0.76 0 1.18 -0.14 1.3 -1.04 c0.04 -0.62 0.06 -1.24 0.06 -1.88 s-0.04 -1.26 -0.08 -1.88 c-0.1 -0.62 -0.42 -1 -0.9 -1 l-1.9 0 l0 5.8 z M78.74 13.48 l1.58 0 c0.72 0 1.14 -0.2 1.24 -1.02 c0.04 -0.32 0.04 -0.7 0.04 -1.06 c0 -0.98 -0.04 -1.74 -1.28 -1.74 l-1.58 0 l0 3.82 z"></path></g><g id="SvgjsG1767" featureKey="text3" fill="#ffffff" transform="matrix(0.8720929845724334,0,0,0.8720929845724334,253.12790701542758,94.87790851247439)"><path d="M9.96 20.4 c-0.02 1.92 -1.46 3.6 -3.42 3.6 l-5.54 0 l0 -16.78 l5.54 0 c1.96 0.02 3.42 1.74 3.42 3.66 l0 9.52 z M6.9 20.36 l0 -9.42 c0 -0.74 -0.58 -1.28 -1.18 -1.28 l-1.58 0 l0 11.94 l1.56 0 c0.66 0 1.2 -0.58 1.2 -1.24 z M12.459 7.219999999999999 l3.06 0 l0 16.78 l-3.06 0 l0 -16.78 z M22.318 21.72 c0.22 0.02 0.42 0.02 0.64 0.02 c0.1 0 0.26 0 0.38 -0.04 c0.5 -0.08 0.84 -0.42 0.84 -1.06 l0 -3.38 l-1.54 0 l0 -2.32 l4.64 0 l0 5.56 c0 2 -1.42 3.44 -2.98 3.68 c-0.24 0.04 -0.48 0.04 -0.72 0.04 c-0.2 0 -0.38 -0.02 -0.56 -0.02 l-1.28 0 c-1.74 0 -3.4 -1.5 -3.4 -3.7 l0 -9.78 c0 -2.18 1.68 -3.7 3.4 -3.7 l2.12 0 c1.98 0 3.42 1.8 3.42 3.72 l0 2.36 l-3.1 0 c0 -0.38 0 -0.78 -0.02 -1.16 c0 -0.14 0 -0.26 -0.04 -0.4 c-0.02 -0.34 -0.06 -0.68 -0.1 -1 c-0.04 -0.78 -0.46 -1.06 -1.16 -1.06 c-0.18 0 -0.36 0.02 -0.54 0.02 c-0.58 0.1 -0.9 0.54 -0.9 1.12 l0 9.6 c0 0.6 0.14 1.5 0.9 1.5 z M29.797 7.219999999999999 l3.06 0 l0 16.78 l-3.06 0 l0 -16.78 z M35.216 7.219999999999999 l9.92 0 l0 2.28 l-3.44 0 l0 14.5 l-3.04 0 l0 -14.5 l-3.44 0 l0 -2.28 z M53.555 7.219999999999999 l4.04 16.78 l-3.06 0 l-0.78 -3.58 l-3.3 0 l-0.8 3.58 l-3.04 0 l4.02 -16.78 l2.92 0 z M52.095 12.94 l-1.14 5.22 l2.3 0 z M59.714 7.219999999999999 l3.06 0 l0 14.5 l3.56 0 l0 2.28 l-6.62 0 l0 -16.78 z  M72.232 10.72 c0 -2.18 1.64 -3.68 3.36 -3.7 l1.78 0 c1.76 0 3.28 1.52 3.28 3.72 l0 2.22 l-2.88 0 l0 -1.34 c0 -1.1 -0.16 -2.12 -1.28 -2.12 c-0.02 0 -0.18 0.02 -0.2 0.02 c-0.54 0.04 -1.04 0.5 -1.04 1.32 c0 4 5.88 4.26 5.88 9.66 c0 2.2 -1.64 3.7 -3.38 3.7 l-2.16 0 c-1.74 0 -3.38 -1.5 -3.38 -3.7 l0 -2.24 l3.02 0 l0 1.06 c-0.02 1.2 0.18 2.4 1.46 2.4 c0.86 0 1.42 -0.44 1.42 -1.48 c0 -3.9 -5.88 -4.1 -5.88 -9.52 z M92.211 10.72 l0 9.78 c0 2.2 -1.64 3.7 -3.38 3.7 l-2.14 0 c-1.74 0 -3.38 -1.48 -3.38 -3.7 l0 -9.78 c0 -2.04 1.44 -3.7 3.52 -3.7 l2 0 c1.72 0 3.38 1.52 3.38 3.7 z M86.331 11.3 c-0.02 0.14 -0.02 0.58 -0.02 0.76 l0 7.5 c0 0.38 0.02 0.66 0.06 1.14 c0.02 0.82 0.56 1.02 1.26 1.02 c0.78 0 1.42 -0.02 1.54 -1.02 c0.02 -0.5 0.04 -1 0.04 -1.5 l0 -7.9 c0 -0.24 -0.02 -0.5 -0.02 -0.74 c-0.02 -0.62 -0.46 -1 -0.96 -1.06 c-0.08 -0.02 -0.28 -0.02 -0.42 -0.02 c-1.46 0 -1.48 0.66 -1.48 1.82 z M94.73 7.219999999999999 l3.06 0 l0 14.5 l3.56 0 l0 2.28 l-6.62 0 l0 -16.78 z M109.16900000000001 20.52 l0 -13.3 l3.04 0 l0 13.3 c0 2.18 -1.66 3.68 -3.38 3.68 l-2.16 0 c-1.72 0 -3.36 -1.48 -3.36 -3.68 l0 -13.3 l3 0 l0 13.3 c0 1.08 0.62 1.24 1.36 1.24 c0.8 0 1.5 -0.04 1.5 -1.24 z M114.168 7.219999999999999 l9.92 0 l0 2.28 l-3.44 0 l0 14.5 l-3.04 0 l0 -14.5 l-3.44 0 l0 -2.28 z M126.147 7.219999999999999 l3.06 0 l0 16.78 l-3.06 0 l0 -16.78 z M140.92600000000002 10.72 l0 9.78 c0 2.2 -1.64 3.7 -3.38 3.7 l-2.14 0 c-1.74 0 -3.38 -1.48 -3.38 -3.7 l0 -9.78 c0 -2.04 1.44 -3.7 3.52 -3.7 l2 0 c1.72 0 3.38 1.52 3.38 3.7 z M135.04600000000002 11.3 c-0.02 0.14 -0.02 0.58 -0.02 0.76 l0 7.5 c0 0.38 0.02 0.66 0.06 1.14 c0.02 0.82 0.56 1.02 1.26 1.02 c0.78 0 1.42 -0.02 1.54 -1.02 c0.02 -0.5 0.04 -1 0.04 -1.5 l0 -7.9 c0 -0.24 -0.02 -0.5 -0.02 -0.74 c-0.02 -0.62 -0.46 -1 -0.96 -1.06 c-0.08 -0.02 -0.28 -0.02 -0.42 -0.02 c-1.46 0 -1.48 0.66 -1.48 1.82 z M150.26500000000001 7.219999999999999 l3.06 0 l0 16.78 l-3.14 0 l-3.7 -10.02 l0 10.02 l-3.06 0 l0 -16.78 l3.24 0 l3.6 9.56 l0 -9.56 z M155.74400000000003 10.72 c0 -2.18 1.64 -3.68 3.36 -3.7 l1.78 0 c1.76 0 3.28 1.52 3.28 3.72 l0 2.22 l-2.88 0 l0 -1.34 c0 -1.1 -0.16 -2.12 -1.28 -2.12 c-0.02 0 -0.18 0.02 -0.2 0.02 c-0.54 0.04 -1.04 0.5 -1.04 1.32 c0 4 5.88 4.26 5.88 9.66 c0 2.2 -1.64 3.7 -3.38 3.7 l-2.16 0 c-1.74 0 -3.38 -1.5 -3.38 -3.7 l0 -2.24 l3.02 0 l0 1.06 c-0.02 1.2 0.18 2.4 1.46 2.4 c0.86 0 1.42 -0.44 1.42 -1.48 c0 -3.9 -5.88 -4.1 -5.88 -9.52 z"></path></g>
			</g>
		</svg>
	