<svg width="512" height="394" viewBox="0 0 512 394" fill="none" xmlns="http://www.w3.org/2000/svg">
<path d="M486.4 0.733002H25.6C11.462 0.733002 0 12.194 0 26.333V367.666C0 381.804 11.461 393.266 25.6 393.266H486.4C500.538 393.266 512 381.805 512 367.666V26.333C512 12.195 500.539 0.733002 486.4 0.733002ZM494.933 367.667C494.933 372.38 491.113 376.2 486.4 376.2H25.6C20.887 376.2 17.067 372.38 17.067 367.667V26.333C17.067 21.62 20.887 17.8 25.6 17.8H486.4C491.113 17.8 494.933 21.62 494.933 26.333V367.667Z" fill="white"/>
<path d="M470.076 34.898C467.821 34.701 465.58 35.408 463.847 36.864L266.982 202.239C260.633 207.576 251.366 207.576 245.017 202.239L48.154 36.863C45.819 34.903 42.615 34.337 39.75 35.379C36.885 36.421 34.793 38.913 34.263 41.916C33.733 44.919 34.845 47.976 37.18 49.936L234.044 215.303C246.732 225.986 265.268 225.986 277.957 215.303L474.82 49.937C476.554 48.482 477.638 46.398 477.835 44.143C478.032 41.888 477.325 39.647 475.869 37.914C474.415 36.179 472.331 35.095 470.076 34.898Z" fill="white"/>
<path d="M164.124 214.13C161.103 213.456 157.955 214.47 155.895 216.78L36.428 344.78C34.266 346.994 33.472 350.206 34.354 353.172C35.236 356.139 37.655 358.395 40.675 359.069C43.696 359.743 46.844 358.729 48.904 356.419L168.371 228.419C170.533 226.205 171.327 222.993 170.445 220.027C169.563 217.061 167.145 214.804 164.124 214.13Z" fill="white"/>
<path d="M356.105 216.78C354.046 214.47 350.897 213.456 347.876 214.13C344.855 214.804 342.437 217.061 341.555 220.027C340.673 222.994 341.467 226.205 343.629 228.419L463.096 356.419C466.336 359.737 471.632 359.861 475.023 356.697C478.414 353.533 478.658 348.241 475.572 344.779L356.105 216.78Z" fill="white"/>
</svg>
