<svg width="100" height="100" viewBox="0 0 100 100" fill="none" xmlns="http://www.w3.org/2000/svg">
<path d="M99.574 97.399L52.061 49.884L99.345 2.6C99.914 2.032 99.914 1.109 99.345 0.54C98.776 -0.0280004 97.855 -0.0280004 97.286 0.54L50.002 47.824L2.72097 0.54C2.15197 -0.0290003 1.23097 -0.0280004 0.661971 0.54C0.0929707 1.109 0.0929707 2.031 0.661971 2.6L47.943 49.884L0.427971 97.399C-0.141029 97.968 -0.141029 98.89 0.427971 99.459C0.711971 99.743 1.08497 99.886 1.45797 99.886C1.83097 99.886 2.20297 99.743 2.48797 99.459L50.003 51.944L97.516 99.459C97.8 99.743 98.173 99.886 98.546 99.886C98.919 99.886 99.291 99.743 99.576 99.459C100.143 98.89 100.143 97.968 99.574 97.399Z" fill="white"/>
</svg>
