<svg width="1339" height="1185" viewBox="0 0 1339 1185" fill="none" xmlns="http://www.w3.org/2000/svg">
<path d="M762.349 1073.99C654.99 1129.17 538.88 1165.34 419.173 1180.87C339.414 1191.66 258.256 1178.05 186.384 1141.82C127.008 1108.69 79.7456 1057.48 51.466 995.642C20.5921 928.118 3.56927 855.09 1.40378 780.875C-1.6705 698.59 6.24239 616.263 24.9331 536.071C43.3477 454.286 71.5877 375.029 109.038 300.027C142.99 230.628 187.677 167.018 241.452 111.543C287.269 62.9496 345.265 27.5129 409.411 8.91566C438.115 2.2951 467.598 -0.316307 497.02 1.15599C533.16 2.62733 569.139 6.81095 604.653 13.6715C642.951 20.6802 683.251 30.4424 724.302 42.4573C765.353 54.4723 806.905 67.4885 847.956 83.2581C889.007 99.0277 929.056 115.048 967.354 133.32C1005.65 151.593 1042.45 168.364 1074.49 186.386C1104.29 202.419 1133.2 220.05 1161.09 239.202C1182.29 253.727 1201.85 270.513 1219.42 289.264C1252.2 324.228 1280.23 363.364 1302.77 405.659C1320.93 439.84 1332.56 477.105 1337.06 515.545C1340.77 550.592 1337.28 586.027 1326.8 619.675C1315.56 655.117 1298.65 688.506 1276.74 718.547C1251.5 753.001 1222.64 784.639 1190.63 812.915C1153.63 845.782 1114.4 876.058 1073.24 903.527C1029.43 933.314 981.121 962.35 929.056 991.136C876.992 1019.92 821.172 1045.7 762.349 1073.99Z" fill="#E81114"/>
<path d="M892.244 993.182L834.441 829.13H500.289L442.486 993.182H273.485L566.35 197.727H768.385L1061.25 993.182H892.249H892.244ZM548.706 690.959H785.973L667.616 353.504L548.706 690.959Z" fill="white"/>
</svg>
